# xmcd
#
# Track frame offsets:
#	150
#	16840
#	34430
#	55437
#	72397
#	92597
#	111085
#	128670
#	151170
#	166245
#	183155
#	199459
#	220795
#	238700
#
# Disc length: 3433 seconds
#
# Revision: 1
# Processed by: cddbd v1.4PL0 Copyright (c) Steve Scherf et al.
# Submitted via: audiograbber 1.81.02
#
DISCID=be0d670e
DTITLE=CAN - 4 - Gray Market
DYEAR=2003
DGENRE=Ballad
TTITLE0=진심 
TTITLE1=꺼져
TTITLE2=등대
TTITLE3=남자의 진한 향기
TTITLE4=후회
TTITLE5=불효자는 웁니다
TTITLE6=純情別曲 (순정별곡)
TTITLE7=Love Again
TTITLE8=Lovin' You
TTITLE9=Surprise
TTITLE10=하늘은 내편이다
TTITLE11=Rewind
TTITLE12=For Man's Blues
TTITLE13=꺼져 - Clubmix Version
EXTD=
EXTT0=
EXTT1=
EXTT2=
EXTT3=
EXTT4=
EXTT5=
EXTT6=
EXTT7=
EXTT8=
EXTT9=
EXTT10=
EXTT11=
EXTT12=
EXTT13=
PLAYORDER=
